<?xml version="1.0" encoding="utf-8"?>
<!-- Generator: Adobe Illustrator 24.1.3, SVG Export Plug-In . SVG Version: 6.00 Build 0)  -->
<svg version="1.1" id="Layer_1" xmlns="http://www.w3.org/2000/svg" xmlns:xlink="http://www.w3.org/1999/xlink" x="0px" y="0px"
	 viewBox="0 0 58 38" style="enable-background:new 0 0 58 38;" xml:space="preserve">
<style type="text/css">
	.st0{fill-rule:evenodd;clip-rule:evenodd;fill:#0A1F3E;stroke:#0A1F3E;stroke-width:2;}
	.st1{fill-rule:evenodd;clip-rule:evenodd;fill:#FFE185;stroke:#FFE185;stroke-width:0.5;}
</style>
<desc>Created with sketchtool.</desc>
<g id="Cosmo-Prof">
	<g id="Auth-Checkout---VAN---Payment-_x28_L_x29_" transform="translate(-397.000000, -725.000000)">
		<g id="VAN" transform="translate(397.000000, 723.000000)">
			<g id="cosmo-plcc-card" transform="translate(0.000000, 2.000000)">
				<path id="Rectangle-Copy-9" class="st0" d="M7,1h44c3.3,0,6,2.7,6,6v24c0,3.3-2.7,6-6,6H7c-3.3,0-6-2.7-6-6V7C1,3.7,3.7,1,7,1z"
					/>
				<path id="Combined-Shape" class="st1" d="M43,5.1c-2,10.1-16.6,12.7-20.4,12.3c-0.2,1-0.7,5.7,0,9.1c-0.3,0.1-0.8,0.3-1.3,0.4
					c-0.5-2.5-0.5-5.7,0-9.6c-6.1,0.8-12.8-3-15.3-7.3c5.6-2.2,12.6-2.3,17.7,0c-0.1,0.1-0.2,0.3-0.4,0.5c-3.4-1.6-8-1.5-13.7,0.2
					l0.2,0.3c1.9,2.4,4.1,4.8,11.9,5.4C23.9,6,38.2,4.5,43,5.1z M41,7c-9-0.2-14.6,2.8-17,9C33.4,15.5,39.1,12.5,41,7z"/>
			</g>
		</g>
	</g>
</g>
</svg>
